<?xml version="1.0" encoding="UTF-8"?>
<svg xmlns="http://www.w3.org/2000/svg" version="1.1" width="500" height="500" viewBox="0 0 500 500"><rect x="0" y="0" width="500" height="500" fill="#ffffff"/><g transform="scale(16.129)"><g transform="translate(1,1)"><g><g transform="translate(3.5,3.5)"><path fill-rule="evenodd" d="M-3.5 -3.5L3.5 -3.5L3.5 3.5L-3.5 3.5ZM-2.5 -2.5L-2.5 2.5L2.5 2.5L2.5 -2.5Z" fill="#000000"/><path fill-rule="evenodd" d="M-1.5 -1.5L1.5 -1.5L1.5 1.5L-1.5 1.5Z" fill="#000000"/></g></g><g><g transform="translate(25.5,3.5)"><g transform="rotate(90)"><path fill-rule="evenodd" d="M-3.5 -3.5L3.5 -3.5L3.5 3.5L-3.5 3.5ZM-2.5 -2.5L-2.5 2.5L2.5 2.5L2.5 -2.5Z" fill="#000000"/><path fill-rule="evenodd" d="M-1.5 -1.5L1.5 -1.5L1.5 1.5L-1.5 1.5Z" fill="#000000"/></g></g></g><g><g transform="translate(3.5,25.5)"><g transform="rotate(-90)"><path fill-rule="evenodd" d="M-3.5 -3.5L3.5 -3.5L3.5 3.5L-3.5 3.5ZM-2.5 -2.5L-2.5 2.5L2.5 2.5L2.5 -2.5Z" fill="#000000"/><path fill-rule="evenodd" d="M-1.5 -1.5L1.5 -1.5L1.5 1.5L-1.5 1.5Z" fill="#000000"/></g></g></g><path fill-rule="evenodd" d="M15 0L15 1L17 1L17 2L16 2L16 4L11 4L11 3L10 3L10 2L8 2L8 8L10 8L10 7L11 7L11 8L12 8L12 9L13 9L13 8L14 8L14 9L15 9L15 10L17 10L17 9L18 9L18 8L20 8L20 9L19 9L19 10L21 10L21 6L20 6L20 7L19 7L19 6L18 6L18 7L17 7L17 5L16 5L16 4L17 4L17 2L18 2L18 1L17 1L17 0ZM19 0L19 3L20 3L20 5L21 5L21 3L20 3L20 1L21 1L21 0ZM12 1L12 3L13 3L13 1ZM14 2L14 3L15 3L15 2ZM9 4L9 5L10 5L10 6L9 6L9 7L10 7L10 6L11 6L11 7L12 7L12 8L13 8L13 7L14 7L14 8L15 8L15 7L16 7L16 9L17 9L17 7L16 7L16 6L15 6L15 7L14 7L14 6L13 6L13 5L12 5L12 6L11 6L11 4ZM18 4L18 5L19 5L19 4ZM12 6L12 7L13 7L13 6ZM0 8L0 9L1 9L1 8ZM2 8L2 10L3 10L3 11L2 11L2 12L3 12L3 11L4 11L4 12L5 12L5 13L4 13L4 14L6 14L6 15L7 15L7 16L6 16L6 17L5 17L5 18L3 18L3 17L2 17L2 16L3 16L3 15L2 15L2 14L3 14L3 13L1 13L1 12L0 12L0 13L1 13L1 14L0 14L0 15L1 15L1 17L0 17L0 21L1 21L1 18L2 18L2 19L3 19L3 20L2 20L2 21L3 21L3 20L4 20L4 21L5 21L5 20L6 20L6 21L7 21L7 20L8 20L8 22L9 22L9 23L8 23L8 27L9 27L9 24L11 24L11 25L10 25L10 27L12 27L12 25L13 25L13 28L12 28L12 29L14 29L14 25L15 25L15 26L17 26L17 25L18 25L18 29L20 29L20 28L19 28L19 25L20 25L20 26L21 26L21 25L23 25L23 27L24 27L24 25L25 25L25 23L26 23L26 25L29 25L29 23L27 23L27 22L28 22L28 20L25 20L25 19L29 19L29 17L28 17L28 18L26 18L26 17L24 17L24 16L25 16L25 15L27 15L27 16L29 16L29 14L28 14L28 13L27 13L27 14L26 14L26 13L24 13L24 12L26 12L26 11L27 11L27 10L28 10L28 9L27 9L27 8L22 8L22 9L24 9L24 10L25 10L25 11L19 11L19 12L17 12L17 11L16 11L16 13L12 13L12 16L14 16L14 17L15 17L15 18L17 18L17 19L16 19L16 21L13 21L13 22L11 22L11 21L12 21L12 19L13 19L13 18L12 18L12 19L11 19L11 21L10 21L10 22L9 22L9 20L10 20L10 16L11 16L11 13L9 13L9 12L6 12L6 11L7 11L7 10L8 10L8 11L10 11L10 10L8 10L8 9L7 9L7 8ZM5 9L5 11L6 11L6 10L7 10L7 9ZM26 9L26 10L27 10L27 9ZM12 10L12 11L11 11L11 12L12 12L12 11L13 11L13 10ZM14 11L14 12L15 12L15 11ZM28 11L28 12L29 12L29 11ZM19 12L19 13L16 13L16 14L17 14L17 15L16 15L16 17L17 17L17 18L18 18L18 17L19 17L19 19L18 19L18 20L17 20L17 21L16 21L16 22L17 22L17 23L16 23L16 25L17 25L17 23L19 23L19 22L20 22L20 20L19 20L19 19L20 19L20 18L21 18L21 19L23 19L23 18L24 18L24 19L25 19L25 18L24 18L24 17L23 17L23 18L21 18L21 17L22 17L22 16L18 16L18 15L25 15L25 14L24 14L24 13L23 13L23 14L21 14L21 13L22 13L22 12L21 12L21 13L20 13L20 12ZM6 13L6 14L8 14L8 16L7 16L7 17L6 17L6 18L5 18L5 19L4 19L4 20L5 20L5 19L6 19L6 20L7 20L7 19L8 19L8 20L9 20L9 19L8 19L8 16L10 16L10 15L9 15L9 14L8 14L8 13ZM4 15L4 16L5 16L5 15ZM14 15L14 16L15 16L15 15ZM6 18L6 19L7 19L7 18ZM14 19L14 20L15 20L15 19ZM18 20L18 22L19 22L19 20ZM21 21L21 24L24 24L24 21ZM25 21L25 22L27 22L27 21ZM22 22L22 23L23 23L23 22ZM12 23L12 24L13 24L13 25L14 25L14 24L15 24L15 23L14 23L14 24L13 24L13 23ZM18 24L18 25L19 25L19 24ZM26 26L26 27L25 27L25 28L24 28L24 29L27 29L27 27L28 27L28 28L29 28L29 27L28 27L28 26ZM16 27L16 28L17 28L17 27ZM8 28L8 29L10 29L10 28ZM21 28L21 29L23 29L23 28Z" fill="#000000"/></g></g></svg>
